<?xml version="1.0" encoding="UTF-8" standalone="no"?>
<!DOCTYPE svg PUBLIC "-//W3C//DTD SVG 1.1//EN"
 "http://www.w3.org/Graphics/SVG/1.1/DTD/svg11.dtd">
<!-- Generated by graphviz version 2.38.0 (20140413.2041)
 -->
<!-- Title: packages Pages: 1 -->
<svg width="1882pt" height="764pt"
 viewBox="0.00 0.00 1882.00 764.00" xmlns="http://www.w3.org/2000/svg" xmlns:xlink="http://www.w3.org/1999/xlink">
<g id="graph0" class="graph" transform="scale(1 1) rotate(0) translate(4 760)">
<title>packages</title>
<polygon fill="white" stroke="none" points="-4,4 -4,-760 1878,-760 1878,4 -4,4"/>
<!-- 0 -->
<g id="node1" class="node"><title>0</title>
<polygon fill="none" stroke="black" points="1251,-540 1197,-540 1197,-504 1251,-504 1251,-540"/>
<text text-anchor="middle" x="1224" y="-518.3" font-family="Times,serif" font-size="14.00">fer</text>
</g>
<!-- 13 -->
<g id="node14" class="node"><title>13</title>
<polygon fill="none" stroke="black" points="749,-612 681,-612 681,-576 749,-576 749,-612"/>
<text text-anchor="middle" x="715" y="-590.3" font-family="Times,serif" font-size="14.00">fer.ferutil</text>
</g>
<!-- 0&#45;&gt;13 -->
<g id="edge1" class="edge"><title>0&#45;&gt;13</title>
<path fill="none" stroke="black" d="M1196.86,-529.035C1180.45,-532.547 1159.09,-536.883 1140,-540 1001.75,-562.576 836.821,-580.627 759.346,-588.586"/>
<polygon fill="black" stroke="black" points="749.006,-589.642 758.497,-584.15 753.98,-589.134 758.954,-588.626 758.954,-588.626 758.954,-588.626 753.98,-589.134 759.411,-593.103 749.006,-589.642 749.006,-589.642"/>
</g>
<!-- 16 -->
<g id="node17" class="node"><title>16</title>
<polygon fill="none" stroke="black" points="1263,-684 1171,-684 1171,-648 1263,-648 1263,-684"/>
<text text-anchor="middle" x="1217" y="-662.3" font-family="Times,serif" font-size="14.00">fer.ferutil.env</text>
</g>
<!-- 0&#45;&gt;16 -->
<g id="edge2" class="edge"><title>0&#45;&gt;16</title>
<path fill="none" stroke="black" d="M1223.16,-540.129C1221.96,-564.33 1219.77,-608.789 1218.35,-637.607"/>
<polygon fill="black" stroke="black" points="1217.85,-647.811 1213.85,-637.601 1218.09,-642.817 1218.34,-637.823 1218.34,-637.823 1218.34,-637.823 1218.09,-642.817 1222.83,-638.044 1217.85,-647.811 1217.85,-647.811"/>
</g>
<!-- 19 -->
<g id="node20" class="node"><title>19</title>
<polygon fill="none" stroke="black" points="1203.5,-756 1096.5,-756 1096.5,-720 1203.5,-720 1203.5,-756"/>
<text text-anchor="middle" x="1150" y="-734.3" font-family="Times,serif" font-size="14.00">fer.ferutil.logger</text>
</g>
<!-- 0&#45;&gt;19 -->
<g id="edge3" class="edge"><title>0&#45;&gt;19</title>
<path fill="none" stroke="black" d="M1237.99,-540.346C1261.23,-571.42 1302.39,-637.66 1272,-684 1258.65,-704.36 1235.6,-716.94 1213.1,-724.694"/>
<polygon fill="black" stroke="black" points="1203.53,-727.73 1211.7,-720.418 1208.29,-726.219 1213.06,-724.708 1213.06,-724.708 1213.06,-724.708 1208.29,-726.219 1214.42,-728.997 1203.53,-727.73 1203.53,-727.73"/>
</g>
<!-- 1 -->
<g id="node2" class="node"><title>1</title>
<polygon fill="none" stroke="black" points="777.5,-180 690.5,-180 690.5,-144 777.5,-144 777.5,-180"/>
<text text-anchor="middle" x="734" y="-158.3" font-family="Times,serif" font-size="14.00">fer.FerParser</text>
</g>
<!-- 24 -->
<g id="node25" class="node"><title>24</title>
<polygon fill="none" stroke="black" points="791,-252 705,-252 705,-216 791,-216 791,-252"/>
<text text-anchor="middle" x="748" y="-230.3" font-family="Times,serif" font-size="14.00">fer.grammer</text>
</g>
<!-- 1&#45;&gt;24 -->
<g id="edge4" class="edge"><title>1&#45;&gt;24</title>
<path fill="none" stroke="black" d="M737.461,-180.303C739.003,-188.017 740.858,-197.288 742.578,-205.888"/>
<polygon fill="black" stroke="black" points="744.579,-215.896 738.205,-206.972 743.599,-210.993 742.618,-206.09 742.618,-206.09 742.618,-206.09 743.599,-210.993 747.031,-205.207 744.579,-215.896 744.579,-215.896"/>
</g>
<!-- 2 -->
<g id="node3" class="node"><title>2</title>
<polygon fill="none" stroke="black" points="716,-108 632,-108 632,-72 716,-72 716,-108"/>
<text text-anchor="middle" x="674" y="-86.3" font-family="Times,serif" font-size="14.00">fer.compiler</text>
</g>
<!-- 4 -->
<g id="node5" class="node"><title>4</title>
<polygon fill="none" stroke="black" points="250.5,-180 143.5,-180 143.5,-144 250.5,-144 250.5,-180"/>
<text text-anchor="middle" x="197" y="-158.3" font-family="Times,serif" font-size="14.00">fer.compiler.app</text>
</g>
<!-- 2&#45;&gt;4 -->
<g id="edge5" class="edge"><title>2&#45;&gt;4</title>
<path fill="none" stroke="black" d="M631.861,-94.4086C558.285,-100.787 401.542,-116.268 260.765,-143.789"/>
<polygon fill="black" stroke="black" points="250.658,-145.791 259.593,-139.433 255.563,-144.819 260.467,-143.847 260.467,-143.847 260.467,-143.847 255.563,-144.819 261.342,-148.262 250.658,-145.791 250.658,-145.791"/>
</g>
<!-- 3 -->
<g id="node4" class="node"><title>3</title>
<polygon fill="none" stroke="black" points="1275.5,-36 1132.5,-36 1132.5,-0 1275.5,-0 1275.5,-36"/>
<text text-anchor="middle" x="1204" y="-14.3" font-family="Times,serif" font-size="14.00">fer.compiler.__main__</text>
</g>
<!-- 3&#45;&gt;0 -->
<g id="edge6" class="edge"><title>3&#45;&gt;0</title>
<path fill="none" stroke="black" d="M1207.84,-36.3884C1213.4,-63.0581 1223,-115.732 1223,-161 1223,-161 1223,-161 1223,-307 1223,-374.045 1223.5,-452.903 1223.79,-493.607"/>
<polygon fill="black" stroke="black" points="1223.87,-503.802 1219.29,-493.835 1223.83,-498.802 1223.79,-493.802 1223.79,-493.802 1223.79,-493.802 1223.83,-498.802 1228.29,-493.769 1223.87,-503.802 1223.87,-503.802"/>
</g>
<!-- 3&#45;&gt;2 -->
<g id="edge7" class="edge"><title>3&#45;&gt;2</title>
<path fill="none" stroke="black" d="M1132.25,-28.4769C1024.06,-42.7655 821.711,-69.4911 726.312,-82.0908"/>
<polygon fill="black" stroke="black" points="716.32,-83.4106 725.644,-77.6399 721.277,-82.7559 726.234,-82.1011 726.234,-82.1011 726.234,-82.1011 721.277,-82.7559 726.823,-86.5624 716.32,-83.4106 716.32,-83.4106"/>
</g>
<!-- 3&#45;&gt;4 -->
<g id="edge8" class="edge"><title>3&#45;&gt;4</title>
<path fill="none" stroke="black" d="M1132.16,-23.1342C1022.14,-30.0108 805.457,-45.7059 623,-72 462.962,-95.0633 421.134,-105.75 260.453,-143.716"/>
<polygon fill="black" stroke="black" points="250.708,-146.018 259.406,-139.34 255.574,-144.869 260.44,-143.72 260.44,-143.72 260.44,-143.72 255.574,-144.869 261.474,-148.099 250.708,-146.018 250.708,-146.018"/>
</g>
<!-- 3&#45;&gt;13 -->
<g id="edge9" class="edge"><title>3&#45;&gt;13</title>
<path fill="none" stroke="black" d="M1201.85,-36.24C1191.51,-111.046 1139.78,-409.609 959,-540 899.466,-582.941 811.933,-592.263 759.49,-593.654"/>
<polygon fill="black" stroke="black" points="749.171,-593.837 759.09,-589.16 754.171,-593.748 759.17,-593.66 759.17,-593.66 759.17,-593.66 754.171,-593.748 759.25,-598.159 749.171,-593.837 749.171,-593.837"/>
</g>
<!-- 3&#45;&gt;16 -->
<g id="edge10" class="edge"><title>3&#45;&gt;16</title>
<path fill="none" stroke="black" d="M1225.56,-36.2232C1253.59,-60.7155 1299,-108.5 1299,-161 1299,-161 1299,-161 1299,-307 1299,-433.617 1249.66,-579.211 1227.53,-638.155"/>
<polygon fill="black" stroke="black" points="1223.85,-647.813 1223.2,-636.866 1225.63,-643.14 1227.41,-638.467 1227.41,-638.467 1227.41,-638.467 1225.63,-643.14 1231.61,-640.068 1223.85,-647.813 1223.85,-647.813"/>
</g>
<!-- 3&#45;&gt;19 -->
<g id="edge11" class="edge"><title>3&#45;&gt;19</title>
<path fill="none" stroke="black" d="M1270.37,-36.0026C1328.92,-55.4672 1405,-93.7071 1405,-161 1405,-161 1405,-161 1405,-595 1405,-682.412 1289.21,-716.497 1213.68,-729.433"/>
<polygon fill="black" stroke="black" points="1203.77,-731.05 1212.91,-724.999 1208.7,-730.245 1213.64,-729.44 1213.64,-729.44 1213.64,-729.44 1208.7,-730.245 1214.36,-733.882 1203.77,-731.05 1203.77,-731.05"/>
</g>
<!-- 4&#45;&gt;13 -->
<g id="edge12" class="edge"><title>4&#45;&gt;13</title>
<path fill="none" stroke="black" d="M152.71,-180.144C105.663,-201.596 38,-243.193 38,-305 38,-305 38,-305 38,-451 38,-580.738 520.253,-592.63 670.715,-593.183"/>
<polygon fill="black" stroke="black" points="680.964,-593.205 670.954,-597.683 675.964,-593.194 670.964,-593.183 670.964,-593.183 670.964,-593.183 675.964,-593.194 670.973,-588.683 680.964,-593.205 680.964,-593.205"/>
</g>
<!-- 4&#45;&gt;16 -->
<g id="edge13" class="edge"><title>4&#45;&gt;16</title>
<path fill="none" stroke="black" d="M247.297,-180.08C277.643,-190.415 317.067,-203.893 352,-216 443.243,-247.622 468.468,-249.435 557,-288 683.124,-342.94 711.17,-364.424 831,-432 961.831,-505.78 1113.4,-599.862 1181.11,-642.359"/>
<polygon fill="black" stroke="black" points="1189.72,-647.765 1178.85,-646.255 1185.48,-645.105 1181.25,-642.445 1181.25,-642.445 1181.25,-642.445 1185.48,-645.105 1183.64,-638.635 1189.72,-647.765 1189.72,-647.765"/>
</g>
<!-- 4&#45;&gt;19 -->
<g id="edge14" class="edge"><title>4&#45;&gt;19</title>
<path fill="none" stroke="black" d="M143.381,-173.784C114.491,-181.694 79.6233,-194.844 54,-216 18.3221,-245.457 0,-258.733 0,-305 0,-305 0,-305 0,-595 0,-637.669 1.19795,-659.313 36,-684 79.0146,-714.513 855.896,-731.481 1086.18,-735.855"/>
<polygon fill="black" stroke="black" points="1096.41,-736.048 1086.32,-740.359 1091.41,-735.954 1086.41,-735.859 1086.41,-735.859 1086.41,-735.859 1091.41,-735.954 1086.49,-731.36 1096.41,-736.048 1096.41,-736.048"/>
</g>
<!-- 4&#45;&gt;24 -->
<g id="edge15" class="edge"><title>4&#45;&gt;24</title>
<path fill="none" stroke="black" d="M250.63,-178.356C253.45,-178.959 256.253,-179.513 259,-180 448.71,-213.616 501.675,-180.277 691,-216 692.284,-216.242 693.581,-216.502 694.886,-216.777"/>
<polygon fill="black" stroke="black" points="704.971,-219.147 694.207,-221.24 700.103,-218.003 695.236,-216.86 695.236,-216.86 695.236,-216.86 700.103,-218.003 696.265,-212.479 704.971,-219.147 704.971,-219.147"/>
</g>
<!-- 26 -->
<g id="node27" class="node"><title>26</title>
<polygon fill="none" stroke="black" points="548,-324 410,-324 410,-288 548,-288 548,-324"/>
<text text-anchor="middle" x="479" y="-302.3" font-family="Times,serif" font-size="14.00">fer.grammer.compiler</text>
</g>
<!-- 4&#45;&gt;26 -->
<g id="edge16" class="edge"><title>4&#45;&gt;26</title>
<path fill="none" stroke="black" d="M231.016,-180.129C282.359,-205.982 379.615,-254.955 435.865,-283.28"/>
<polygon fill="black" stroke="black" points="444.864,-287.811 433.908,-287.332 440.398,-285.562 435.932,-283.313 435.932,-283.313 435.932,-283.313 440.398,-285.562 437.956,-279.294 444.864,-287.811 444.864,-287.811"/>
</g>
<!-- 28 -->
<g id="node29" class="node"><title>28</title>
<polygon fill="none" stroke="black" points="248,-468 100,-468 100,-432 248,-432 248,-468"/>
<text text-anchor="middle" x="174" y="-446.3" font-family="Times,serif" font-size="14.00">fer.grammer.interceptor</text>
</g>
<!-- 4&#45;&gt;28 -->
<g id="edge17" class="edge"><title>4&#45;&gt;28</title>
<path fill="none" stroke="black" d="M206.954,-180.022C212.272,-190.112 218.272,-203.362 221,-216 224.376,-231.64 222.869,-236.11 221,-252 213.715,-313.924 193.971,-384.584 182.524,-422.165"/>
<polygon fill="black" stroke="black" points="179.533,-431.853 178.183,-420.97 181.008,-427.075 182.483,-422.298 182.483,-422.298 182.483,-422.298 181.008,-427.075 186.783,-423.626 179.533,-431.853 179.533,-431.853"/>
</g>
<!-- 29 -->
<g id="node30" class="node"><title>29</title>
<polygon fill="none" stroke="black" points="426,-540 304,-540 304,-504 426,-504 426,-540"/>
<text text-anchor="middle" x="365" y="-518.3" font-family="Times,serif" font-size="14.00">fer.grammer.parser</text>
</g>
<!-- 4&#45;&gt;29 -->
<g id="edge18" class="edge"><title>4&#45;&gt;29</title>
<path fill="none" stroke="black" d="M200.395,-180.102C204.285,-198.3 211.386,-227.751 221,-252 258.063,-345.485 319.347,-448.25 348.546,-495.121"/>
<polygon fill="black" stroke="black" points="353.941,-503.73 344.818,-497.646 351.286,-499.494 348.631,-495.257 348.631,-495.257 348.631,-495.257 351.286,-499.494 352.444,-492.867 353.941,-503.73 353.941,-503.73"/>
</g>
<!-- 5 -->
<g id="node6" class="node"><title>5</title>
<polygon fill="none" stroke="black" points="932.5,-180 795.5,-180 795.5,-144 932.5,-144 932.5,-180"/>
<text text-anchor="middle" x="864" y="-158.3" font-family="Times,serif" font-size="14.00">fer.compiler.common</text>
</g>
<!-- 5&#45;&gt;24 -->
<g id="edge19" class="edge"><title>5&#45;&gt;24</title>
<path fill="none" stroke="black" d="M835.623,-180.124C820.456,-189.276 801.595,-200.658 785.261,-210.515"/>
<polygon fill="black" stroke="black" points="776.486,-215.81 782.723,-206.791 780.767,-213.227 785.048,-210.644 785.048,-210.644 785.048,-210.644 780.767,-213.227 787.373,-214.496 776.486,-215.81 776.486,-215.81"/>
</g>
<!-- 6 -->
<g id="node7" class="node"><title>6</title>
<polygon fill="none" stroke="black" points="1424.5,-36 1293.5,-36 1293.5,-0 1424.5,-0 1424.5,-36"/>
<text text-anchor="middle" x="1359" y="-14.3" font-family="Times,serif" font-size="14.00">fer.compiler.psrhook</text>
</g>
<!-- 7 -->
<g id="node8" class="node"><title>7</title>
<polygon fill="none" stroke="black" points="443.5,-180 268.5,-180 268.5,-144 443.5,-144 443.5,-180"/>
<text text-anchor="middle" x="356" y="-158.3" font-family="Times,serif" font-size="14.00">fer.compiler.psrhook.context</text>
</g>
<!-- 7&#45;&gt;24 -->
<g id="edge20" class="edge"><title>7&#45;&gt;24</title>
<path fill="none" stroke="black" d="M443.753,-178.474C446.873,-178.994 449.963,-179.504 453,-180 558.584,-197.235 586.597,-192.655 691,-216 692.275,-216.285 693.564,-216.584 694.862,-216.894"/>
<polygon fill="black" stroke="black" points="704.907,-219.458 694.105,-221.345 700.062,-218.221 695.218,-216.984 695.218,-216.984 695.218,-216.984 700.062,-218.221 696.331,-212.624 704.907,-219.458 704.907,-219.458"/>
</g>
<!-- 8 -->
<g id="node9" class="node"><title>8</title>
<polygon fill="none" stroke="black" points="634,-180 462,-180 462,-144 634,-144 634,-180"/>
<text text-anchor="middle" x="548" y="-158.3" font-family="Times,serif" font-size="14.00">fer.compiler.psrhook.literals</text>
</g>
<!-- 8&#45;&gt;24 -->
<g id="edge21" class="edge"><title>8&#45;&gt;24</title>
<path fill="none" stroke="black" d="M596.67,-180.034C626.509,-190.478 664.715,-203.85 695.272,-214.545"/>
<polygon fill="black" stroke="black" points="704.904,-217.916 693.979,-218.86 700.185,-216.265 695.465,-214.613 695.465,-214.613 695.465,-214.613 700.185,-216.265 696.952,-210.365 704.904,-217.916 704.904,-217.916"/>
</g>
<!-- 9 -->
<g id="node10" class="node"><title>9</title>
<polygon fill="none" stroke="black" points="1157.5,-180 988.5,-180 988.5,-144 1157.5,-144 1157.5,-180"/>
<text text-anchor="middle" x="1073" y="-158.3" font-family="Times,serif" font-size="14.00">fer.compiler.psrhook.loader</text>
</g>
<!-- 9&#45;&gt;13 -->
<g id="edge22" class="edge"><title>9&#45;&gt;13</title>
<path fill="none" stroke="black" d="M1054.58,-180.359C1030.13,-205.375 990,-254.172 990,-305 990,-305 990,-305 990,-379 990,-455.678 985.468,-489.236 928,-540 881.136,-581.397 806.839,-591.5 759.53,-593.419"/>
<polygon fill="black" stroke="black" points="749.283,-593.723 759.144,-588.928 754.28,-593.575 759.278,-593.426 759.278,-593.426 759.278,-593.426 754.28,-593.575 759.412,-597.924 749.283,-593.723 749.283,-593.723"/>
</g>
<!-- 9&#45;&gt;16 -->
<g id="edge23" class="edge"><title>9&#45;&gt;16</title>
<path fill="none" stroke="black" d="M1073,-180.049C1073,-206.708 1073,-259.885 1073,-305 1073,-305 1073,-305 1073,-379 1073,-485.679 1153.91,-593.129 1194.44,-640.251"/>
<polygon fill="black" stroke="black" points="1201.04,-647.811 1191.07,-643.24 1197.75,-644.045 1194.46,-640.28 1194.46,-640.28 1194.46,-640.28 1197.75,-644.045 1197.85,-637.319 1201.04,-647.811 1201.04,-647.811"/>
</g>
<!-- 9&#45;&gt;19 -->
<g id="edge24" class="edge"><title>9&#45;&gt;19</title>
<path fill="none" stroke="black" d="M1089.05,-180.073C1137.76,-233.289 1283.14,-402.968 1326,-576 1337.59,-622.791 1347.05,-647.127 1316,-684 1290.99,-713.697 1249.34,-726.939 1214.02,-732.761"/>
<polygon fill="black" stroke="black" points="1203.77,-734.276 1213,-728.362 1208.71,-733.545 1213.66,-732.814 1213.66,-732.814 1213.66,-732.814 1208.71,-733.545 1214.32,-737.266 1203.77,-734.276 1203.77,-734.276"/>
</g>
<!-- 9&#45;&gt;24 -->
<g id="edge25" class="edge"><title>9&#45;&gt;24</title>
<path fill="none" stroke="black" d="M993.912,-180.034C934.197,-192.896 853.865,-210.198 801.519,-221.473"/>
<polygon fill="black" stroke="black" points="791.438,-223.644 800.266,-217.139 796.326,-222.591 801.214,-221.539 801.214,-221.539 801.214,-221.539 796.326,-222.591 802.161,-225.938 791.438,-223.644 791.438,-223.644"/>
</g>
<!-- 9&#45;&gt;29 -->
<g id="edge26" class="edge"><title>9&#45;&gt;29</title>
<path fill="none" stroke="black" d="M1041,-180.234C1022.04,-190.507 997.58,-203.87 976,-216 780.892,-325.666 745.349,-378.975 540,-468 506.742,-482.418 468.336,-494.519 435.991,-503.501"/>
<polygon fill="black" stroke="black" points="426.16,-506.187 434.62,-499.21 430.983,-504.869 435.807,-503.551 435.807,-503.551 435.807,-503.551 430.983,-504.869 436.993,-507.892 426.16,-506.187 426.16,-506.187"/>
</g>
<!-- 10 -->
<g id="node11" class="node"><title>10</title>
<polygon fill="none" stroke="black" points="640.5,-540 481.5,-540 481.5,-504 640.5,-504 640.5,-540"/>
<text text-anchor="middle" x="561" y="-518.3" font-family="Times,serif" font-size="14.00">fer.compiler.psrhook.tests</text>
</g>
<!-- 10&#45;&gt;13 -->
<g id="edge27" class="edge"><title>10&#45;&gt;13</title>
<path fill="none" stroke="black" d="M598.673,-540.124C620.743,-550.156 648.705,-562.866 671.683,-573.311"/>
<polygon fill="black" stroke="black" points="680.869,-577.486 669.903,-577.444 676.317,-575.417 671.765,-573.348 671.765,-573.348 671.765,-573.348 676.317,-575.417 673.627,-569.251 680.869,-577.486 680.869,-577.486"/>
</g>
<!-- 11 -->
<g id="node12" class="node"><title>11</title>
<polygon fill="none" stroke="black" points="1679.5,-36 1442.5,-36 1442.5,-0 1679.5,-0 1679.5,-36"/>
<text text-anchor="middle" x="1561" y="-14.3" font-family="Times,serif" font-size="14.00">fer.compiler.psrhook.tests.test_varcheck</text>
</g>
<!-- 12 -->
<g id="node13" class="node"><title>12</title>
<polygon fill="none" stroke="black" points="1053,-108 869,-108 869,-72 1053,-72 1053,-108"/>
<text text-anchor="middle" x="961" y="-86.3" font-family="Times,serif" font-size="14.00">fer.compiler.psrhook.varcheck</text>
</g>
<!-- 12&#45;&gt;9 -->
<g id="edge28" class="edge"><title>12&#45;&gt;9</title>
<path fill="none" stroke="black" d="M988.398,-108.124C1002.91,-117.192 1020.92,-128.448 1036.59,-138.241"/>
<polygon fill="black" stroke="black" points="1045.5,-143.81 1034.63,-142.326 1041.26,-141.16 1037.02,-138.51 1037.02,-138.51 1037.02,-138.51 1041.26,-141.16 1039.4,-134.694 1045.5,-143.81 1045.5,-143.81"/>
</g>
<!-- 12&#45;&gt;13 -->
<g id="edge29" class="edge"><title>12&#45;&gt;13</title>
<path fill="none" stroke="black" d="M957.154,-108.048C945.929,-157.858 914,-299.984 914,-305 914,-305 914,-305 914,-451 914,-526.629 817.585,-565.772 758.976,-582.58"/>
<polygon fill="black" stroke="black" points="749.209,-585.276 757.652,-578.277 754.029,-583.945 758.849,-582.615 758.849,-582.615 758.849,-582.615 754.029,-583.945 760.046,-586.953 749.209,-585.276 749.209,-585.276"/>
</g>
<!-- 12&#45;&gt;24 -->
<g id="edge30" class="edge"><title>12&#45;&gt;24</title>
<path fill="none" stroke="black" d="M868.914,-96.0386C796.734,-102.141 704.672,-115.426 681,-144 670.792,-156.321 674.029,-165.598 681,-180 686.761,-191.903 696.637,-201.944 707.062,-209.976"/>
<polygon fill="black" stroke="black" points="715.473,-215.984 704.72,-213.833 711.404,-213.078 707.336,-210.172 707.336,-210.172 707.336,-210.172 711.404,-213.078 709.951,-206.51 715.473,-215.984 715.473,-215.984"/>
</g>
<!-- 14 -->
<g id="node15" class="node"><title>14</title>
<polygon fill="none" stroke="black" points="589,-684 453,-684 453,-648 589,-648 589,-684"/>
<text text-anchor="middle" x="521" y="-662.3" font-family="Times,serif" font-size="14.00">fer.ferutil.comparable</text>
</g>
<!-- 13&#45;&gt;14 -->
<g id="edge31" class="edge"><title>13&#45;&gt;14</title>
<path fill="none" stroke="black" d="M680.763,-607.353C652.349,-617.606 611.343,-632.402 577.99,-644.437"/>
<polygon fill="black" stroke="black" points="568.356,-647.913 576.235,-640.286 573.059,-646.216 577.762,-644.519 577.762,-644.519 577.762,-644.519 573.059,-646.216 579.29,-648.752 568.356,-647.913 568.356,-647.913"/>
</g>
<!-- 15 -->
<g id="node16" class="node"><title>15</title>
<polygon fill="none" stroke="black" points="722.5,-684 607.5,-684 607.5,-648 722.5,-648 722.5,-684"/>
<text text-anchor="middle" x="665" y="-662.3" font-family="Times,serif" font-size="14.00">fer.ferutil.dummy</text>
</g>
<!-- 13&#45;&gt;15 -->
<g id="edge32" class="edge"><title>13&#45;&gt;15</title>
<path fill="none" stroke="black" d="M702.64,-612.303C696.767,-620.526 689.631,-630.517 683.158,-639.579"/>
<polygon fill="black" stroke="black" points="677.217,-647.896 679.368,-637.143 680.124,-643.827 683.03,-639.758 683.03,-639.758 683.03,-639.758 680.124,-643.827 686.692,-642.374 677.217,-647.896 677.217,-647.896"/>
</g>
<!-- 13&#45;&gt;16 -->
<g id="edge33" class="edge"><title>13&#45;&gt;16</title>
<path fill="none" stroke="black" d="M749.27,-596.934C823.069,-601.551 1002.5,-615.214 1161.02,-648.014"/>
<polygon fill="black" stroke="black" points="1170.95,-650.099 1160.24,-652.448 1166.05,-649.072 1161.16,-648.044 1161.16,-648.044 1161.16,-648.044 1166.05,-649.072 1162.09,-643.64 1170.95,-650.099 1170.95,-650.099"/>
</g>
<!-- 17 -->
<g id="node18" class="node"><title>17</title>
<polygon fill="none" stroke="black" points="845,-684 741,-684 741,-648 845,-648 845,-684"/>
<text text-anchor="middle" x="793" y="-662.3" font-family="Times,serif" font-size="14.00">fer.ferutil.errors</text>
</g>
<!-- 13&#45;&gt;17 -->
<g id="edge34" class="edge"><title>13&#45;&gt;17</title>
<path fill="none" stroke="black" d="M734.281,-612.303C743.915,-620.95 755.729,-631.551 766.227,-640.973"/>
<polygon fill="black" stroke="black" points="773.941,-647.896 763.493,-644.566 770.22,-644.556 766.498,-641.217 766.498,-641.217 766.498,-641.217 770.22,-644.556 769.504,-637.867 773.941,-647.896 773.941,-647.896"/>
</g>
<!-- 18 -->
<g id="node19" class="node"><title>18</title>
<polygon fill="none" stroke="black" points="981,-684 863,-684 863,-648 981,-648 981,-684"/>
<text text-anchor="middle" x="922" y="-662.3" font-family="Times,serif" font-size="14.00">fer.ferutil.fastcopy</text>
</g>
<!-- 13&#45;&gt;18 -->
<g id="edge35" class="edge"><title>13&#45;&gt;18</title>
<path fill="none" stroke="black" d="M749.182,-606.559C779.751,-616.897 825.252,-632.283 861.893,-644.674"/>
<polygon fill="black" stroke="black" points="871.486,-647.918 860.572,-648.977 866.75,-646.316 862.013,-644.715 862.013,-644.715 862.013,-644.715 866.75,-646.316 863.455,-640.452 871.486,-647.918 871.486,-647.918"/>
</g>
<!-- 13&#45;&gt;19 -->
<g id="edge36" class="edge"><title>13&#45;&gt;19</title>
<path fill="none" stroke="black" d="M749.137,-595.521C803.168,-597.633 910.415,-607.134 990,-648 1010.7,-658.627 1008.59,-671.171 1028,-684 1047.3,-696.755 1070.17,-707.642 1090.86,-716.171"/>
<polygon fill="black" stroke="black" points="1100.2,-719.922 1089.24,-720.369 1095.56,-718.058 1090.92,-716.193 1090.92,-716.193 1090.92,-716.193 1095.56,-718.058 1092.6,-712.018 1100.2,-719.922 1100.2,-719.922"/>
</g>
<!-- 20 -->
<g id="node21" class="node"><title>20</title>
<polygon fill="none" stroke="black" points="1153,-684 1037,-684 1037,-648 1153,-648 1153,-684"/>
<text text-anchor="middle" x="1095" y="-662.3" font-family="Times,serif" font-size="14.00">fer.ferutil.pformat</text>
</g>
<!-- 13&#45;&gt;20 -->
<g id="edge37" class="edge"><title>13&#45;&gt;20</title>
<path fill="none" stroke="black" d="M749.311,-600.199C806.331,-608.995 924.114,-627.838 1023,-648 1024.27,-648.26 1025.56,-648.526 1026.86,-648.797"/>
<polygon fill="black" stroke="black" points="1036.91,-650.961 1026.19,-653.256 1032.02,-649.908 1027.13,-648.856 1027.13,-648.856 1027.13,-648.856 1032.02,-649.908 1028.08,-644.457 1036.91,-650.961 1036.91,-650.961"/>
</g>
<!-- 21 -->
<g id="node22" class="node"><title>21</title>
<polygon fill="none" stroke="black" points="180,-684 66,-684 66,-648 180,-648 180,-684"/>
<text text-anchor="middle" x="123" y="-662.3" font-family="Times,serif" font-size="14.00">fer.ferutil.random</text>
</g>
<!-- 13&#45;&gt;21 -->
<g id="edge38" class="edge"><title>13&#45;&gt;21</title>
<path fill="none" stroke="black" d="M680.881,-596.42C597.056,-600.519 375.25,-614.18 190.172,-646.214"/>
<polygon fill="black" stroke="black" points="180.274,-647.951 189.346,-641.79 185.199,-647.087 190.123,-646.223 190.123,-646.223 190.123,-646.223 185.199,-647.087 190.901,-650.655 180.274,-647.951 180.274,-647.951"/>
</g>
<!-- 22 -->
<g id="node23" class="node"><title>22</title>
<polygon fill="none" stroke="black" points="289.5,-684 198.5,-684 198.5,-648 289.5,-648 289.5,-684"/>
<text text-anchor="middle" x="244" y="-662.3" font-family="Times,serif" font-size="14.00">fer.ferutil.test</text>
</g>
<!-- 13&#45;&gt;22 -->
<g id="edge39" class="edge"><title>13&#45;&gt;22</title>
<path fill="none" stroke="black" d="M680.867,-597.264C610.845,-602.351 445.888,-616.608 299.566,-647.863"/>
<polygon fill="black" stroke="black" points="289.511,-650.044 298.329,-643.526 294.397,-648.984 299.283,-647.924 299.283,-647.924 299.283,-647.924 294.397,-648.984 300.237,-652.322 289.511,-650.044 289.511,-650.044"/>
</g>
<!-- 23 -->
<g id="node24" class="node"><title>23</title>
<polygon fill="none" stroke="black" points="434.5,-684 307.5,-684 307.5,-648 434.5,-648 434.5,-684"/>
<text text-anchor="middle" x="371" y="-662.3" font-family="Times,serif" font-size="14.00">fer.ferutil.typecheck</text>
</g>
<!-- 13&#45;&gt;23 -->
<g id="edge40" class="edge"><title>13&#45;&gt;23</title>
<path fill="none" stroke="black" d="M680.696,-601.303C630.997,-610.523 535.842,-628.507 444.624,-647.906"/>
<polygon fill="black" stroke="black" points="434.671,-650.032 443.511,-643.542 439.561,-648.987 444.451,-647.943 444.451,-647.943 444.451,-647.943 439.561,-648.987 445.391,-652.344 434.671,-650.032 434.671,-650.032"/>
</g>
<!-- 21&#45;&gt;13 -->
<g id="edge41" class="edge"><title>21&#45;&gt;13</title>
<path fill="none" stroke="black" d="M180.049,-651.707C186.108,-650.318 192.175,-649.037 198,-648 371.619,-617.077 580.931,-602.716 670.745,-597.476"/>
<polygon fill="black" stroke="black" points="680.842,-596.896 671.116,-601.962 675.85,-597.183 670.858,-597.469 670.858,-597.469 670.858,-597.469 675.85,-597.183 670.6,-592.977 680.842,-596.896 680.842,-596.896"/>
</g>
<!-- 21&#45;&gt;19 -->
<g id="edge42" class="edge"><title>21&#45;&gt;19</title>
<path fill="none" stroke="black" d="M180.094,-682.44C183.095,-683.021 186.077,-683.547 189,-684 523.942,-735.854 931.427,-738.81 1086.22,-737.801"/>
<polygon fill="black" stroke="black" points="1096.49,-737.726 1086.52,-742.299 1091.49,-737.762 1086.49,-737.799 1086.49,-737.799 1086.49,-737.799 1091.49,-737.762 1086.45,-733.299 1096.49,-737.726 1096.49,-737.726"/>
</g>
<!-- 24&#45;&gt;13 -->
<g id="edge43" class="edge"><title>24&#45;&gt;13</title>
<path fill="none" stroke="black" d="M757.767,-252.112C784.018,-300.563 850.59,-441.553 797,-540 788.544,-555.535 773.358,-567.211 758.333,-575.593"/>
<polygon fill="black" stroke="black" points="749.061,-580.391 755.874,-571.799 753.502,-578.093 757.942,-575.795 757.942,-575.795 757.942,-575.795 753.502,-578.093 760.011,-579.792 749.061,-580.391 749.061,-580.391"/>
</g>
<!-- 25 -->
<g id="node26" class="node"><title>25</title>
<polygon fill="none" stroke="black" points="531,-468 393,-468 393,-432 531,-432 531,-468"/>
<text text-anchor="middle" x="462" y="-446.3" font-family="Times,serif" font-size="14.00">fer.grammer.common</text>
</g>
<!-- 24&#45;&gt;25 -->
<g id="edge44" class="edge"><title>24&#45;&gt;25</title>
<path fill="none" stroke="black" d="M725.079,-252.151C674.038,-290.342 550.968,-382.429 493.082,-425.743"/>
<polygon fill="black" stroke="black" points="485.03,-431.768 490.341,-422.173 489.034,-428.772 493.037,-425.776 493.037,-425.776 493.037,-425.776 489.034,-428.772 495.733,-429.38 485.03,-431.768 485.03,-431.768"/>
</g>
<!-- 24&#45;&gt;26 -->
<g id="edge45" class="edge"><title>24&#45;&gt;26</title>
<path fill="none" stroke="black" d="M704.78,-246.247C664.278,-256.786 602.867,-272.767 554.312,-285.402"/>
<polygon fill="black" stroke="black" points="544.47,-287.963 553.015,-281.09 549.309,-286.704 554.148,-285.445 554.148,-285.445 554.148,-285.445 549.309,-286.704 555.281,-289.8 544.47,-287.963 544.47,-287.963"/>
</g>
<!-- 24&#45;&gt;28 -->
<g id="edge46" class="edge"><title>24&#45;&gt;28</title>
<path fill="none" stroke="black" d="M704.881,-235.117C637.504,-236.701 504.282,-245.523 401,-288 327.669,-318.159 323.196,-349.461 259,-396 244.309,-406.651 227.472,-417.424 212.68,-426.451"/>
<polygon fill="black" stroke="black" points="203.771,-431.829 210.007,-422.808 208.052,-429.245 212.332,-426.661 212.332,-426.661 212.332,-426.661 208.052,-429.245 214.658,-430.513 203.771,-431.829 203.771,-431.829"/>
</g>
<!-- 25&#45;&gt;13 -->
<g id="edge47" class="edge"><title>25&#45;&gt;13</title>
<path fill="none" stroke="black" d="M458.581,-468.09C455.679,-487.952 454.399,-520.489 472,-540 498.096,-568.928 608.144,-583.408 670.823,-589.435"/>
<polygon fill="black" stroke="black" points="680.827,-590.364 670.454,-593.92 675.849,-589.902 670.87,-589.44 670.87,-589.44 670.87,-589.44 675.849,-589.902 671.286,-584.959 680.827,-590.364 680.827,-590.364"/>
</g>
<!-- 25&#45;&gt;29 -->
<g id="edge48" class="edge"><title>25&#45;&gt;29</title>
<path fill="none" stroke="black" d="M438.022,-468.303C425.689,-477.204 410.484,-488.177 397.147,-497.801"/>
<polygon fill="black" stroke="black" points="388.702,-503.896 394.177,-494.395 392.756,-500.97 396.811,-498.044 396.811,-498.044 396.811,-498.044 392.756,-500.97 399.444,-501.693 388.702,-503.896 388.702,-503.896"/>
</g>
<!-- 26&#45;&gt;13 -->
<g id="edge49" class="edge"><title>26&#45;&gt;13</title>
<path fill="none" stroke="black" d="M532.584,-324.031C604.011,-349.97 727.5,-406.896 780,-504 787.609,-518.075 786.864,-525.547 780,-540 774.431,-551.727 764.856,-561.715 754.741,-569.752"/>
<polygon fill="black" stroke="black" points="746.58,-575.776 751.953,-566.217 750.603,-572.807 754.626,-569.837 754.626,-569.837 754.626,-569.837 750.603,-572.807 757.298,-573.458 746.58,-575.776 746.58,-575.776"/>
</g>
<!-- 26&#45;&gt;25 -->
<g id="edge50" class="edge"><title>26&#45;&gt;25</title>
<path fill="none" stroke="black" d="M476.949,-324.129C474.052,-348.33 468.729,-392.789 465.279,-421.607"/>
<polygon fill="black" stroke="black" points="464.058,-431.811 460.779,-421.347 464.652,-426.846 465.247,-421.882 465.247,-421.882 465.247,-421.882 464.652,-426.846 469.715,-422.417 464.058,-431.811 464.058,-431.811"/>
</g>
<!-- 27 -->
<g id="node28" class="node"><title>27</title>
<polygon fill="none" stroke="black" points="451,-396 311,-396 311,-360 451,-360 451,-396"/>
<text text-anchor="middle" x="381" y="-374.3" font-family="Times,serif" font-size="14.00">fer.grammer.grammar</text>
</g>
<!-- 26&#45;&gt;27 -->
<g id="edge51" class="edge"><title>26&#45;&gt;27</title>
<path fill="none" stroke="black" d="M455.027,-324.124C442.45,-333.107 426.868,-344.237 413.248,-353.966"/>
<polygon fill="black" stroke="black" points="405.066,-359.81 410.587,-350.336 409.134,-356.904 413.203,-353.998 413.203,-353.998 413.203,-353.998 409.134,-356.904 415.819,-357.66 405.066,-359.81 405.066,-359.81"/>
</g>
<!-- 27&#45;&gt;13 -->
<g id="edge52" class="edge"><title>27&#45;&gt;13</title>
<path fill="none" stroke="black" d="M359.441,-396.087C322.545,-427.324 254.97,-494.601 295,-540 319.613,-567.914 568.189,-584.834 670.928,-590.684"/>
<polygon fill="black" stroke="black" points="680.982,-591.247 670.746,-595.18 675.99,-590.967 670.998,-590.687 670.998,-590.687 670.998,-590.687 675.99,-590.967 671.25,-586.194 680.982,-591.247 680.982,-591.247"/>
</g>
<!-- 27&#45;&gt;25 -->
<g id="edge53" class="edge"><title>27&#45;&gt;25</title>
<path fill="none" stroke="black" d="M401.022,-396.303C411.126,-405.035 423.536,-415.76 434.518,-425.25"/>
<polygon fill="black" stroke="black" points="442.208,-431.896 431.699,-428.762 438.425,-428.626 434.642,-425.357 434.642,-425.357 434.642,-425.357 438.425,-428.626 437.584,-421.952 442.208,-431.896 442.208,-431.896"/>
</g>
<!-- 27&#45;&gt;29 -->
<g id="edge54" class="edge"><title>27&#45;&gt;29</title>
<path fill="none" stroke="black" d="M379.07,-396.129C376.343,-420.33 371.334,-464.789 368.087,-493.607"/>
<polygon fill="black" stroke="black" points="366.937,-503.811 363.585,-493.37 367.497,-498.842 368.057,-493.874 368.057,-493.874 368.057,-493.874 367.497,-498.842 372.528,-494.378 366.937,-503.811 366.937,-503.811"/>
</g>
<!-- 28&#45;&gt;13 -->
<g id="edge55" class="edge"><title>28&#45;&gt;13</title>
<path fill="none" stroke="black" d="M185.356,-468.167C200.231,-489.073 228.408,-523.617 262,-540 333.401,-574.822 571.163,-587.617 670.64,-591.522"/>
<polygon fill="black" stroke="black" points="680.668,-591.904 670.504,-596.02 675.672,-591.714 670.675,-591.523 670.675,-591.523 670.675,-591.523 675.672,-591.714 670.847,-587.027 680.668,-591.904 680.668,-591.904"/>
</g>
<!-- 28&#45;&gt;19 -->
<g id="edge56" class="edge"><title>28&#45;&gt;19</title>
<path fill="none" stroke="black" d="M152.882,-468.271C104.326,-509.942 -6.38147,-617.471 57,-684 92.6525,-721.423 857.771,-733.523 1086.18,-736.308"/>
<polygon fill="black" stroke="black" points="1096.33,-736.43 1086.27,-740.809 1091.33,-736.37 1086.33,-736.309 1086.33,-736.309 1086.33,-736.309 1091.33,-736.37 1086.38,-731.81 1096.33,-736.43 1096.33,-736.43"/>
</g>
<!-- 28&#45;&gt;29 -->
<g id="edge57" class="edge"><title>28&#45;&gt;29</title>
<path fill="none" stroke="black" d="M220.724,-468.124C247.299,-477.863 280.762,-490.128 308.769,-500.392"/>
<polygon fill="black" stroke="black" points="318.428,-503.932 307.49,-504.716 313.733,-502.211 309.039,-500.491 309.039,-500.491 309.039,-500.491 313.733,-502.211 310.587,-496.265 318.428,-503.932 318.428,-503.932"/>
</g>
<!-- 29&#45;&gt;13 -->
<g id="edge58" class="edge"><title>29&#45;&gt;13</title>
<path fill="none" stroke="black" d="M426.359,-537.079C430.972,-538.085 435.557,-539.069 440,-540 521.141,-557.01 616.192,-574.874 670.626,-584.907"/>
<polygon fill="black" stroke="black" points="680.63,-586.747 669.981,-589.364 675.713,-585.843 670.795,-584.938 670.795,-584.938 670.795,-584.938 675.713,-585.843 671.609,-580.512 680.63,-586.747 680.63,-586.747"/>
</g>
<!-- 30 -->
<g id="node31" class="node"><title>30</title>
<polygon fill="none" stroke="black" points="771.5,-540 658.5,-540 658.5,-504 771.5,-504 771.5,-540"/>
<text text-anchor="middle" x="715" y="-518.3" font-family="Times,serif" font-size="14.00">fer.grammer.tests</text>
</g>
<!-- 30&#45;&gt;13 -->
<g id="edge59" class="edge"><title>30&#45;&gt;13</title>
<path fill="none" stroke="black" d="M715,-540.303C715,-548.017 715,-557.288 715,-565.888"/>
<polygon fill="black" stroke="black" points="715,-575.896 710.5,-565.896 715,-570.896 715,-565.896 715,-565.896 715,-565.896 715,-570.896 719.5,-565.896 715,-575.896 715,-575.896"/>
</g>
<!-- 31 -->
<g id="node32" class="node"><title>31</title>
<polygon fill="none" stroke="black" points="1874,-36 1698,-36 1698,-0 1874,-0 1874,-36"/>
<text text-anchor="middle" x="1786" y="-14.3" font-family="Times,serif" font-size="14.00">fer.grammer.tests.test_parser</text>
</g>
<!-- 32 -->
<g id="node33" class="node"><title>32</title>
<polygon fill="none" stroke="black" points="1198.5,-468 1139.5,-468 1139.5,-432 1198.5,-432 1198.5,-468"/>
<text text-anchor="middle" x="1169" y="-446.3" font-family="Times,serif" font-size="14.00">fer.tests</text>
</g>
<!-- 32&#45;&gt;0 -->
<g id="edge60" class="edge"><title>32&#45;&gt;0</title>
<path fill="none" stroke="black" d="M1182.6,-468.303C1189.12,-476.611 1197.07,-486.723 1204.25,-495.859"/>
<polygon fill="black" stroke="black" points="1210.56,-503.896 1200.84,-498.813 1207.47,-499.964 1204.38,-496.032 1204.38,-496.032 1204.38,-496.032 1207.47,-499.964 1207.92,-493.252 1210.56,-503.896 1210.56,-503.896"/>
</g>
<!-- 32&#45;&gt;13 -->
<g id="edge61" class="edge"><title>32&#45;&gt;13</title>
<path fill="none" stroke="black" d="M1145.94,-468.341C1117.59,-488.762 1067.28,-522.153 1019,-540 930.59,-572.679 820.116,-585.473 759.663,-590.28"/>
<polygon fill="black" stroke="black" points="749.33,-591.062 758.962,-585.82 754.316,-590.684 759.301,-590.307 759.301,-590.307 759.301,-590.307 754.316,-590.684 759.641,-594.794 749.33,-591.062 749.33,-591.062"/>
</g>
<!-- 32&#45;&gt;16 -->
<g id="edge62" class="edge"><title>32&#45;&gt;16</title>
<path fill="none" stroke="black" d="M1172.55,-468.081C1176.31,-486.013 1182.44,-515.017 1188,-540 1195.5,-573.677 1204.54,-612.357 1210.51,-637.66"/>
<polygon fill="black" stroke="black" points="1212.87,-647.631 1206.19,-638.935 1211.72,-642.766 1210.57,-637.9 1210.57,-637.9 1210.57,-637.9 1211.72,-642.766 1214.95,-636.864 1212.87,-647.631 1212.87,-647.631"/>
</g>
<!-- 32&#45;&gt;19 -->
<g id="edge63" class="edge"><title>32&#45;&gt;19</title>
<path fill="none" stroke="black" d="M1198.6,-461.736C1218.52,-470.35 1243.97,-484.281 1260,-504 1311.25,-567.049 1338.33,-617.251 1292,-684 1274.28,-709.524 1242.7,-722.778 1213.81,-729.651"/>
<polygon fill="black" stroke="black" points="1203.73,-731.826 1212.56,-725.318 1208.62,-730.771 1213.51,-729.717 1213.51,-729.717 1213.51,-729.717 1208.62,-730.771 1214.46,-734.115 1203.73,-731.826 1203.73,-731.826"/>
</g>
</g>
</svg>
